<?xml version="1.0" encoding="iso-8859-1"?>
<!-- Generator: Adobe Illustrator 19.0.0, SVG Export Plug-In . SVG Version: 6.00 Build 0)  -->
<svg version="1.1" id="Capa_1" xmlns="http://www.w3.org/2000/svg" xmlns:xlink="http://www.w3.org/1999/xlink" x="0px" y="0px"
	 viewBox="0 0 512 512" style="enable-background:new 0 0 512 512;" xml:space="preserve">
<path style="fill:#994C10;" d="M375.99,210.026c-8.29,0-14.999-6.708-14.999-14.999c0-85.203-57.241-135.311-93.317-146.868
	c-7.895-2.52-12.245-10.971-9.711-18.851s11.029-12.216,18.851-9.711C320.961,33.731,390.99,93.872,390.99,195.026
	C390.989,203.317,384.28,210.026,375.99,210.026z"/>
<path style="fill:#E61E14;" d="M511.979,319.515c0,82.793-58.895,180.185-135.989,191.284c-4.799,0.901-9.9,1.201-14.999,1.201
	c-84.593,0-149.987-104.292-149.987-192.485c0-82.791,58.796-136.489,149.987-136.489c3.6,0,6.598,0.601,10.2,0.901l4.799,3.3
	l47.995,31.797l-5.999-27.597C475.882,209.426,511.979,255.621,511.979,319.515z"/>
<path style="fill:#D30015;" d="M511.979,319.515c0,82.793-58.895,180.185-135.989,191.284V187.228l47.995,31.797l-5.999-27.597
	C475.882,209.426,511.979,255.621,511.979,319.515z"/>
<path style="fill:#AA0000;" d="M390.989,348.017c-4.98,6.62-3.633,16.024,3.003,20.989c2.695,2.021,5.845,3.003,8.978,3.003
	c4.57,0,9.066-2.065,12.011-6.005c39.542-52.719,38.429-122.901,3.116-174.479c-14.301-4.455-30.098-6.946-47.012-7.73
	C420.138,224.286,429.546,296.598,390.989,348.017z"/>
<path style="fill:#FD4E26;" d="M300.996,319.515c0,82.793-57.895,180.185-134.989,191.284c-4.799,0.901-9.9,1.201-14.999,1.201
	C66.416,512,0.022,407.708,0.022,319.515c0-82.791,59.796-136.489,150.987-136.489c3.6,0,6.598,0.601,10.2,0.901l4.799,3.3
	l47.995,31.797l-5.998-27.597C265.899,209.426,300.996,255.621,300.996,319.515z"/>
<path style="fill:#FD3018;" d="M300.996,319.515c0,82.793-57.895,180.185-134.989,191.284V187.228l47.995,31.797l-5.998-27.597
	C265.899,209.426,300.996,255.621,300.996,319.515z"/>
<path style="fill:#32D736;" d="M166.008,150.031H136.01c-74.437,0-135.989-60.552-135.989-134.989
	c0-8.29,6.708-14.999,14.999-14.999h30.997c74.437,0,134.989,60.552,134.989,134.989
	C181.006,143.322,174.298,150.031,166.008,150.031z"/>
<path style="fill:#E61E14;" d="M181.006,348.017c-4.98,6.62-3.633,16.024,3.003,20.989c2.695,2.021,5.845,3.003,8.978,3.003
	c4.57,0,9.066-2.065,12.011-6.005c39.542-52.719,38.429-122.901,3.116-174.479c-14.301-4.455-30.098-6.946-47.012-7.73
	C210.156,224.286,219.563,296.598,181.006,348.017z"/>
<path style="fill:#BF6015;" d="M450.984,13.242c0.901,8.398-5.099,15.898-13.199,16.799L286.898,46.839
	c-71.096,7.799-109.792,61.495-105.892,147.587c0.3,8.1-5.999,15.299-14.398,15.6c-0.3,0-0.3,0-0.601,0
	c-8.1,0-14.699-6.3-14.999-14.4c-1.5-36.596,3.6-68.393,14.999-94.791c20.698-47.697,61.194-77.694,117.59-83.993L434.186,0.043
	C442.583-0.557,450.083,5.143,450.984,13.242z"/>
<g>
</g>
<g>
</g>
<g>
</g>
<g>
</g>
<g>
</g>
<g>
</g>
<g>
</g>
<g>
</g>
<g>
</g>
<g>
</g>
<g>
</g>
<g>
</g>
<g>
</g>
<g>
</g>
<g>
</g>
</svg>
